<?xml version="1.0" encoding="UTF-8" standalone="no"?><!DOCTYPE svg PUBLIC "-//W3C//DTD SVG 1.1//EN" "http://www.w3.org/Graphics/SVG/1.1/DTD/svg11.dtd"><svg width="100%" height="100%" viewBox="0 0 4000 4000" version="1.1" xmlns="http://www.w3.org/2000/svg" xmlns:xlink="http://www.w3.org/1999/xlink" xml:space="preserve" xmlns:serif="http://www.serif.com/" style="fill-rule:evenodd;clip-rule:evenodd;stroke-linejoin:round;stroke-miterlimit:2;"><rect x="0" y="0" width="4000" height="4000" style="fill:#5165f6;"/><path d="M2000,544.642c-803.794,-0 -1455.36,651.564 -1455.36,1455.36c-0,803.649 651.564,1455.36 1455.36,1455.36c803.794,0 1455.36,-651.709 1455.36,-1455.36c0,-803.794 -651.564,-1455.36 -1455.36,-1455.36Zm-582.143,582.143c160.671,-0 291.071,130.4 291.071,291.072c0,160.817 -130.4,291.071 -291.071,291.071c-160.672,0 -291.072,-130.254 -291.072,-291.071c-0,-160.672 130.4,-291.072 291.072,-291.072Zm1455.36,1164.29c0,380.867 -416.232,727.679 -873.215,727.679c-456.983,-0 -873.215,-346.812 -873.215,-727.679l-0,-145.536l1746.43,-0l0,145.536Zm-291.072,-582.144c-160.671,0 -291.071,-130.254 -291.071,-291.071c-0,-160.672 130.4,-291.072 291.071,-291.072c160.672,-0 291.072,130.4 291.072,291.072c0,160.817 -130.4,291.071 -291.072,291.071Z" style="fill:#fff;fill-rule:nonzero;"/></svg>